<svg xmlns="http://www.w3.org/2000/svg" viewBox="0 0 500 377.52"><defs><style>.cls-1{fill:#ebebeb;}.cls-2,.cls-3{fill:#e0e0e0;}.cls-3{font-size:12px;font-family:Bebas;}.cls-4{fill:#f5f5f5;}.cls-16,.cls-5{fill:#407bff;}.cls-11,.cls-15,.cls-17,.cls-18,.cls-19,.cls-6,.cls-8{fill:#fff;}.cls-11,.cls-14,.cls-15,.cls-16,.cls-17,.cls-19,.cls-6,.cls-7,.cls-8{isolation:isolate;}.cls-6{opacity:0.1;}.cls-15,.cls-7{opacity:0.2;}.cls-8{opacity:0.7;}.cls-9{fill:#263238;}.cls-10{fill:#ebb376;}.cls-11{opacity:0.6;}.cls-12{fill:#d58745;}.cls-13{fill:none;stroke:#263238;stroke-linecap:round;stroke-linejoin:round;stroke-width:0.56px;}.cls-14{opacity:0.4;}.cls-17{opacity:0.3;}.cls-19{opacity:0.5;}</style></defs><g id="Layer_2" data-name="Layer 2"><g id="Background_Complete" data-name="Background Complete"><rect class="cls-1" y="327.45" width="500" height="0.25"/><rect class="cls-1" x="416.78" y="343.54" width="33.12" height="0.25"/><rect class="cls-1" x="322.53" y="346.26" width="8.69" height="0.25"/><rect class="cls-1" x="396.59" y="334.26" width="19.19" height="0.25"/><rect class="cls-1" x="52.46" y="335.94" width="43.19" height="0.25"/><rect class="cls-1" x="104.56" y="335.94" width="6.33" height="0.25"/><rect class="cls-1" x="131.47" y="340.16" width="93.68" height="0.25"/><path class="cls-1" d="M237,282.85H43.91a5.71,5.71,0,0,1-5.7-5.71V5.71A5.71,5.71,0,0,1,43.91,0H237a5.71,5.71,0,0,1,5.71,5.71V277.14A5.71,5.71,0,0,1,237,282.85ZM43.91.25a5.46,5.46,0,0,0-5.45,5.46V277.14a5.46,5.46,0,0,0,5.45,5.46H237a5.47,5.47,0,0,0,5.46-5.46V5.71A5.47,5.47,0,0,0,237,.25Z"/><path class="cls-1" d="M453.31,282.85H260.21a5.72,5.72,0,0,1-5.71-5.71V5.71A5.72,5.72,0,0,1,260.21,0h193.1A5.71,5.71,0,0,1,459,5.71V277.14A5.71,5.71,0,0,1,453.31,282.85ZM260.21.25a5.47,5.47,0,0,0-5.46,5.46V277.14a5.47,5.47,0,0,0,5.46,5.46h193.1a5.47,5.47,0,0,0,5.46-5.46V5.71A5.47,5.47,0,0,0,453.31.25Z"/><path class="cls-2" d="M443.18,23.42v-4.3l-2.21-.2a11.53,11.53,0,0,0-1.65-4l1.42-1.72-3-3L436,11.62A11.53,11.53,0,0,0,432,10l-.2-2.21h-4.3L427.31,10a11.48,11.48,0,0,0-4,1.65l-1.72-1.42-3,3L420,15a11.34,11.34,0,0,0-1.65,4l-2.21.2v4.3l2.21.21a11.29,11.29,0,0,0,1.65,4l-1.42,1.72,3,3,1.72-1.42a11.27,11.27,0,0,0,4,1.64l.21,2.22h4.3l.2-2.22a11.32,11.32,0,0,0,4-1.64l1.72,1.42,3-3-1.42-1.72a11.48,11.48,0,0,0,1.65-4Zm-13.51,3.67a5.82,5.82,0,1,1,5.81-5.82A5.82,5.82,0,0,1,429.67,27.09Z"/><path class="cls-2" d="M460.59,35.54V32.17L458.85,32a9,9,0,0,0-1.29-3.11l1.12-1.34-2.38-2.38L455,26.29A8.92,8.92,0,0,0,451.84,25l-.16-1.73h-3.36L448.15,25A9,9,0,0,0,445,26.29l-1.34-1.11-2.38,2.38,1.11,1.34A9.19,9.19,0,0,0,441.14,32l-1.73.16v3.37l1.73.16a8.92,8.92,0,0,0,1.29,3.11l-1.11,1.35,2.38,2.38L445,41.42a9,9,0,0,0,3.11,1.29l.17,1.74h3.36l.16-1.74A8.92,8.92,0,0,0,455,41.42l1.35,1.12,2.38-2.38-1.12-1.35a8.92,8.92,0,0,0,1.29-3.11ZM450,38.41a4.56,4.56,0,1,1,4.55-4.55A4.56,4.56,0,0,1,450,38.41Z"/><path class="cls-2" d="M443.18,45.09V42.27l-1.45-.14a7.46,7.46,0,0,0-1.09-2.61l.94-1.13-2-2-1.13.94a7.46,7.46,0,0,0-2.61-1.09l-.14-1.45h-2.82l-.14,1.45a7.46,7.46,0,0,0-2.61,1.09L429,36.39l-2,2,.93,1.13a7.63,7.63,0,0,0-1.08,2.61l-1.46.14v2.82l1.46.14a7.63,7.63,0,0,0,1.08,2.61L427,49l2,2,1.13-.94a7.46,7.46,0,0,0,2.61,1.09l.14,1.45h2.82l.14-1.45A7.46,7.46,0,0,0,438.45,50l1.13.94,2-2-.94-1.13a7.46,7.46,0,0,0,1.09-2.61Zm-8.89,2.42a3.83,3.83,0,1,1,3.82-3.83A3.84,3.84,0,0,1,434.29,47.51Z"/><polygon class="cls-2" points="50.47 326.52 72.81 178.03 72.81 326.52 78.81 326.52 78.81 177.1 101.19 326.52 107.61 326.52 79.61 139.49 78.81 139.6 78.81 133.52 72.81 133.52 72.81 139.58 71.99 139.49 43.92 326.52 50.47 326.52"/><polygon class="cls-1" points="106.56 160.23 44.74 160.23 49.75 108.57 101.56 108.57 106.56 160.23"/><text class="cls-3" transform="translate(64.11 23.45)">1011100010101000101010101010101010000000111111001011110101</text><text class="cls-3" transform="translate(142.56 264.34)">1011100010101000101010101000111110101010000111010100000</text><text class="cls-3" transform="translate(85.45 60.48)">01010100010101010000000111111001011110101</text><text class="cls-3" transform="translate(163.24 306.54)">01010100010101010000000111111001011110101</text><text class="cls-3" transform="translate(227.31 284.21)">01010100010101010000000111111001011110101</text><text class="cls-3" transform="translate(85.45 79.05)">010101000101010101010101010000000111111001011110101</text></g><g id="Shadow"><ellipse id="_Path_" data-name="&lt;Path&gt;" class="cls-4" cx="250" cy="361.29" rx="193.89" ry="11.32"/></g><g id="Window"><path class="cls-5" d="M444,37.66V238.91a9.36,9.36,0,0,1-9,9.14H145.39c-4.81,0-8.39-4.32-8.39-9.14V37.66a8.36,8.36,0,0,1,8.39-8.61H435A8.91,8.91,0,0,1,444,37.66Z"/><path class="cls-6" d="M444,62.74V238.91a9.36,9.36,0,0,1-9,9.14H145.39c-4.81,0-8.39-4.32-8.39-9.14V170.34c25.48-49,86.22-56.94,157.33-28.29C395,182.6,437.93,127.55,444,62.74Z"/></g><g id="Bar"><path class="cls-7" d="M364.92,225.08H218a5,5,0,0,1-5-5h0a5,5,0,0,1,5-5H364.92a5,5,0,0,1,5,5h0A5,5,0,0,1,364.92,225.08Z"/><path class="cls-5" d="M218,224.05a4,4,0,1,1,0-8h86.84a4,4,0,1,1,0,8Z"/><path class="cls-8" d="M218,224.05a4,4,0,1,1,0-8h86.84a4,4,0,1,1,0,8Z"/></g><g id="Character"><g id="_Group_" data-name="&lt;Group&gt;"><path class="cls-9" d="M159.93,232.31c9.32,7.49,6.07,43.24,7.82,48.74s9.25,10,9.25,10l-10.46,12.25s-8.75-1.51-15.4-15.76S159.93,232.31,159.93,232.31Z"/><path class="cls-7" d="M159.93,232.31c9.32,7.49,6.07,43.24,7.82,48.74s9.25,10,9.25,10l-10.46,12.25s-8.75-1.51-15.4-15.76S159.93,232.31,159.93,232.31Z"/><path class="cls-5" d="M150,310.8s67-18.69,75.38,4.82S173,357.86,139.37,359,92,336.55,101.92,314.13Z"/><path class="cls-7" d="M150,310.8s67-18.69,75.38,4.82S173,357.86,139.37,359,92,336.55,101.92,314.13Z"/><path class="cls-5" d="M215.67,348.84a.21.21,0,0,1-.25,0,.17.17,0,0,1-.06-.21c.11-.37,1.23-3.61,2.35-3.95a.72.72,0,0,1,.68.2,1.14,1.14,0,0,1,.39,1.08,3,3,0,0,1-1.05,1.52A11.71,11.71,0,0,1,215.67,348.84Zm.29-.62a4.76,4.76,0,0,0,2.39-2.31.73.73,0,0,0-.28-.74.24.24,0,0,0-.26-.08.93.93,0,0,0-.26.15A9.22,9.22,0,0,0,216,348.22Z"/><path class="cls-5" d="M215.61,348.88a.17.17,0,0,1-.21-.06c-.11-.09-1.66-2.05-1.4-3.37a1.22,1.22,0,0,1,.53-.81.73.73,0,0,1,.9-.09c.81.58.71,3.2.31,4.2l0,.09A.17.17,0,0,1,215.61,348.88Zm-.89-3.84a.79.79,0,0,0-.26.47c-.17.84.61,2.09,1,2.7.25-1.12.17-3-.31-3.3-.05,0-.15-.1-.39.07l-.08.06Z"/><path class="cls-5" d="M147.4,360.74a.24.24,0,0,1,.18-.17.18.18,0,0,1,.19.11c.2.34,1.73,3.4,1.18,4.44a.7.7,0,0,1-.61.34,1.14,1.14,0,0,1-1.05-.47,3,3,0,0,1-.35-1.82A12.55,12.55,0,0,1,147.4,360.74Zm.24.64a4.83,4.83,0,0,0,0,3.33.74.74,0,0,0,.73.32.25.25,0,0,0,.24-.14,1,1,0,0,0,.07-.29A9.33,9.33,0,0,0,147.64,361.38Z"/><polygon class="cls-10" points="163.63 338.12 151.78 346.81 146.09 350.98 149.8 357.46 155.58 354.3 169.69 346.59 163.63 338.12"/><path class="cls-9" d="M151.64,357.27l-3.58-7.89a.84.84,0,0,0-1.15-.41l-3.86,1.88s-5.37,2.17-6,3.92c-2,5.09,5.49,22.75,7.82,22.75.85,0,1.36-1.32,1.48-2.16.37-2.67.44-9.39.78-11.62.4-2.6,3-4.61,4.25-5.4A.87.87,0,0,0,151.64,357.27Z"/><path class="cls-5" d="M147.41,360.67a.19.19,0,0,1,.19-.11c.14,0,2.63.25,3.4,1.36a1.28,1.28,0,0,1,.2.95.72.72,0,0,1-.57.7c-1,.18-2.78-1.73-3.21-2.71l0-.09A.18.18,0,0,1,147.41,360.67Zm3.37,2.06a.84.84,0,0,0-.15-.53c-.48-.7-1.93-1-2.65-1.14.62,1,2,2.2,2.56,2.09.06,0,.18,0,.23-.33v-.09Z"/><polygon class="cls-7" points="163.63 338.12 151.78 346.81 155.58 354.3 169.69 346.59 163.63 338.12"/><polygon class="cls-5" points="158.28 354.79 162.18 353.93 155.71 341.57 152.09 345.25 158.28 354.79"/><polygon class="cls-11" points="158.28 354.79 162.18 353.93 155.71 341.57 152.09 345.25 158.28 354.79"/><polygon class="cls-10" points="188.15 353.08 202.65 355.47 209.62 356.61 211.65 349.42 205.35 347.51 189.97 342.82 188.15 353.08"/><path class="cls-9" d="M210.23,348.24l-3.14,8.08a.87.87,0,0,0,.51,1.12l4.05,1.43s5.31,2.32,7,1.58c5-2.16,12.42-19.85,10.79-21.51-.6-.61-1.89-.05-2.58.45-2.17,1.61-7,6.26-8.85,7.58-2.14,1.53-5.41,1-6.83.75A.84.84,0,0,0,210.23,348.24Z"/><polygon class="cls-7" points="188.15 353.08 202.65 355.47 205.35 347.51 189.97 342.82 188.15 353.08"/><path class="cls-5" d="M202.85,346s-60.28-35.55-80.68-34.61S100,332.64,108.41,343.9s24,14,24,14-10.58-15-9.05-19.16,7.36,9.94,7.36,9.94,37.35,4.89,69.89,7.65Z"/><polygon class="cls-5" points="203.81 345.09 200.46 342.84 196.16 356.05 201.32 356.05 203.81 345.09"/><polygon class="cls-11" points="203.81 345.09 200.46 342.84 196.16 356.05 201.32 356.05 203.81 345.09"/><path class="cls-9" d="M157.89,317.05c-10.91-21-7.44-52.95,2-84.74-6.6-5.51-32.93-9.23-53-3.39,0,0-12.74,47.21-11.24,98.78Z"/><path class="cls-10" d="M134.73,237.47c-8.77,0-14.48-9.2-14.48-9.2,11.5-4,11.54-16.17,11.54-16.17l4.43,4.33,6.31,6.18c-5.25,3.72-2.77,6.94-1.1,8.37a7.68,7.68,0,0,0,1.1.82S143.5,237.47,134.73,237.47Z"/><path class="cls-7" d="M141.43,231c-10.76,1.21-10-14.9-10-14.9a27.39,27.39,0,0,1,4.82.35l6.31,6.18C137.28,226.33,139.76,229.55,141.43,231Z"/><path class="cls-9" d="M149.83,200c-4.07,1.69-3.29,6.14,3.47,14.24,4.16-3.58,6.42-11.74,4.23-14.36S153.39,198.56,149.83,200Z"/><path class="cls-10" d="M155.85,218.05v0a28.43,28.43,0,0,1-1.3,3.18c-4,8.19-15.58,9.78-20.7,1.68l-.06-.08c-3.38-5.45-2.11-10.54-.7-19.36a12.2,12.2,0,0,1,19-8.18C158.83,200,158.43,210.52,155.85,218.05Z"/><path class="cls-9" d="M145.54,208.8c-.16.71.09,1.36.55,1.47s1-.39,1.12-1.09-.09-1.37-.54-1.48S145.74,208.11,145.54,208.8Z"/><path class="cls-9" d="M153.58,210.61c-.16.71.09,1.37.56,1.47s1-.38,1.13-1.09-.1-1.37-.56-1.47S153.74,209.91,153.58,210.61Z"/><path class="cls-12" d="M150.88,210.36a25.7,25.7,0,0,0,2,6.81c-1.54.89-3.53-.13-3.53-.13Z"/><path class="cls-9" d="M143.91,205.77a.37.37,0,0,1-.25-.12.42.42,0,0,1,0-.6,4.18,4.18,0,0,1,3.77-1,.41.41,0,0,1,.29.5v0a.46.46,0,0,1-.53.29h0a3.35,3.35,0,0,0-3,.78A.44.44,0,0,1,143.91,205.77Z"/><path class="cls-9" d="M157.85,208.72a.43.43,0,0,1-.32-.32,3.37,3.37,0,0,0-1.92-2.4.45.45,0,0,1-.26-.55.42.42,0,0,1,.54-.26,4.23,4.23,0,0,1,2.46,3,.42.42,0,0,1-.31.51h-.19Z"/><path class="cls-9" d="M138.28,196.57c3.75,2.3,2.27,6.58-5.69,13.49-3.55-4.2-4.48-12.62-1.89-14.84S135,194.56,138.28,196.57Z"/><path class="cls-10" d="M127.38,209.53a8.5,8.5,0,0,0,2.83,5.84c2.24,1.95,4.63.26,5.08-2.52.41-2.51-.28-6.55-3-7.44S127.23,206.78,127.38,209.53Z"/><path class="cls-13" d="M142.53,217.14s.92,3.18,5.18,3.91"/><path class="cls-13" d="M150.19,210.42a3,3,0,1,1-3-3A3,3,0,0,1,150.19,210.42Z"/><path class="cls-13" d="M158.36,212.1a3,3,0,1,1-3-3A3,3,0,0,1,158.36,212.1Z"/><path class="cls-13" d="M150.19,211.23a1.61,1.61,0,0,1,2.11.57"/><path class="cls-13" d="M144.19,209.8s-8.69-3.66-10.31-4"/><path class="cls-9" d="M130.61,195.34s-.9-7.07,6.31-8.23,16.64.63,19.56-.62a4.6,4.6,0,0,1-2.07,3.07s5.5,2,9.83.28c0,0-1.88,5.21-4.31,7.21H162s-4.1,3.91-9.09,4-9.69-6.79-14.63-4.48S130.61,195.34,130.61,195.34Z"/><path class="cls-14" d="M155.85,218.05v0a28.43,28.43,0,0,1-1.3,3.18c-4,8.19-15.58,9.78-20.7,1.68l-.06-.08c-2.64-4.69-.53-9.81-.53-9.81l1.54-5,1.12-1.11s.26,5.07,1.05,6.5,5.29,1.85,6.21,2.1,3.1,2.85,4.18,3.55,5,.12,5.51.7S155.85,218.05,155.85,218.05Z"/><path class="cls-7" d="M110.89,298.55l20.73,23s22.93-.51,50.77,13.1c0,0,29.87-12.34,32.62-22.59s-62.71-3-62.71-3Z"/><path class="cls-10" d="M116.75,291.8,150,302.67s11.88-2.62,14-2.62,10.33,6.67,5.69,9-17.31,2.62-18.69,1.87-38.25-9.38-38.25-9.38Z"/><path class="cls-9" d="M106.89,228.92c7.52-1.46-5.53,44.38-2.33,51.13s15.69,11,15.69,11l-5.75,12.7s-17-3.21-26.25-15S94.61,231.3,106.89,228.92Z"/><path class="cls-7" d="M106.89,228.92c7.52-1.46-5.53,44.38-2.33,51.13s15.69,11,15.69,11l-5.75,12.7s-17-3.21-26.25-15S94.61,231.3,106.89,228.92Z"/><polygon class="cls-9" points="120.25 290.05 113.25 303.76 119.25 305.05 124.75 292.42 120.25 290.05"/><polygon class="cls-15" points="120.25 290.05 113.25 303.76 119.25 305.05 124.75 292.42 120.25 290.05"/><path class="cls-9" d="M134,309.05v2.18a2.83,2.83,0,0,0,2.7,2.82h80.39a3,3,0,0,0,2.91-2.82v-2.18Z"/><path class="cls-15" d="M134,309.05v2.18a2.83,2.83,0,0,0,2.7,2.82h80.39a3,3,0,0,0,2.91-2.82v-2.18Z"/><path class="cls-15" d="M164,309.05v2.18a2.84,2.84,0,0,0,2.71,2.82h50.38a3,3,0,0,0,2.91-2.82v-2.18Z"/><path class="cls-9" d="M166.71,312.05h53.11a4.33,4.33,0,0,0,3.86-2.85L235.86,271a2.11,2.11,0,0,0-2-2.94H180.71a4.42,4.42,0,0,0-3.86,2.94l-12.18,38.16A2.08,2.08,0,0,0,166.71,312.05Z"/><path class="cls-15" d="M166.71,312.05h53.11a4.33,4.33,0,0,0,3.86-2.85L235.86,271a2.11,2.11,0,0,0-2-2.94H180.71a4.42,4.42,0,0,0-3.86,2.94l-12.18,38.16A2.08,2.08,0,0,0,166.71,312.05Z"/><path class="cls-15" d="M168.71,312.05h51.11a4.33,4.33,0,0,0,3.86-2.85L235.86,271a2.11,2.11,0,0,0-2-2.94H182.71a4.42,4.42,0,0,0-3.86,2.94l-12.18,38.16A2.08,2.08,0,0,0,168.71,312.05Z"/><polygon class="cls-15" points="205.32 285.86 197.97 291.06 201.15 296.27 208.5 291.06 205.32 285.86"/></g></g><g id="Tab5"><rect class="cls-7" x="166.12" y="38.75" width="84.73" height="84.73" rx="8.74"/><rect class="cls-16" x="189.88" y="29.45" width="71" height="71" rx="7.33"/><rect class="cls-17" x="189.88" y="29.45" width="71" height="71" rx="7.33"/><path class="cls-18" d="M230.85,56.75V52.46l-2.21-.21a11.53,11.53,0,0,0-1.65-4l1.42-1.71-3-3L223.66,45a11.53,11.53,0,0,0-4-1.65l-.21-2.21h-4.29L215,43.3A11.53,11.53,0,0,0,211,45l-1.71-1.42-3,3,1.42,1.71a11.53,11.53,0,0,0-1.65,4l-2.21.21v4.29L206,57a11.53,11.53,0,0,0,1.65,4l-1.42,1.71,3,3L211,64.26a11.53,11.53,0,0,0,4,1.65l.21,2.21h4.29l.21-2.21a11.53,11.53,0,0,0,4-1.65l1.71,1.42,3-3L227,60.93a11.53,11.53,0,0,0,1.65-4Zm-13.51,3.67a5.82,5.82,0,1,1,5.81-5.81A5.82,5.82,0,0,1,217.34,60.42Z"/><path class="cls-18" d="M248.25,68.87V65.51l-1.73-.16a8.92,8.92,0,0,0-1.29-3.11l1.11-1.35L244,58.51l-1.34,1.12a8.93,8.93,0,0,0-3.11-1.3l-.16-1.73H236l-.16,1.73a8.93,8.93,0,0,0-3.11,1.3l-1.34-1.12L229,60.89l1.11,1.35a8.92,8.92,0,0,0-1.29,3.11l-1.73.16v3.36l1.73.17a9,9,0,0,0,1.29,3.1L229,73.49l2.38,2.38,1.34-1.11a9.11,9.11,0,0,0,3.11,1.29l.16,1.73h3.37l.16-1.73a9.11,9.11,0,0,0,3.11-1.29L244,75.87l2.38-2.38-1.11-1.35a9,9,0,0,0,1.29-3.1Zm-10.59,2.88a4.56,4.56,0,1,1,4.56-4.56A4.56,4.56,0,0,1,237.66,71.75Z"/><path class="cls-18" d="M230.85,78.43V75.6l-1.46-.14a7.52,7.52,0,0,0-1.08-2.61l.93-1.13-2-2-1.13.94a7.82,7.82,0,0,0-2.61-1.09l-.14-1.45h-2.83l-.14,1.45a7.82,7.82,0,0,0-2.61,1.09l-1.13-.94-2,2,.93,1.13a7.52,7.52,0,0,0-1.08,2.61l-1.46.14v2.83l1.46.13a7.44,7.44,0,0,0,1.08,2.61l-.93,1.13,2,2,1.13-.93a7.6,7.6,0,0,0,2.61,1.08l.14,1.46h2.83l.14-1.46a7.6,7.6,0,0,0,2.61-1.08l1.13.93,2-2-.93-1.13a7.44,7.44,0,0,0,1.08-2.61ZM222,80.84A3.83,3.83,0,1,1,225.78,77,3.82,3.82,0,0,1,222,80.84Z"/><rect class="cls-15" x="192.88" y="29.45" width="71" height="71" rx="7.33"/></g><g id="Tab4"><rect class="cls-7" x="294" y="120.99" width="78.33" height="78.33" rx="8.08"/><rect class="cls-16" x="313.68" y="116.8" width="65.63" height="65.63" rx="6.77"/><rect class="cls-15" x="313.68" y="116.8" width="65.63" height="65.63" rx="6.77"/><path class="cls-18" d="M349,160.16a2.37,2.37,0,1,1-2.36-2.37A2.37,2.37,0,0,1,349,160.16Z"/><path class="cls-18" d="M346.43,136.52a23.52,23.52,0,0,0-23.53,23.53h18.79a4.43,4.43,0,0,1,4.74-4.64,5.11,5.11,0,0,1,1.41.27l8.81-10.23-6.22,12.1a4.46,4.46,0,0,1,.73,2.5H370A23.53,23.53,0,0,0,346.43,136.52Z"/><rect class="cls-15" x="316.45" y="116.8" width="65.63" height="65.63" rx="6.77"/></g><g id="Tab3"><rect class="cls-7" x="321.7" y="58.38" width="68.73" height="68.73" rx="7.09"/><rect class="cls-16" x="340.13" y="52.33" width="57.59" height="57.59" rx="5.94"/><rect class="cls-6" x="340.13" y="52.33" width="57.59" height="57.59" rx="5.94"/><path class="cls-18" d="M385,66.94a1.89,1.89,0,0,0-1.89-1.89H354.89A1.89,1.89,0,0,0,353,66.94v6.21a1.9,1.9,0,0,0,1.89,1.9h28.22a1.9,1.9,0,0,0,1.89-1.9Zm-9.32,3.37h-1.62V68.68h1.62Zm4.33.81a1.63,1.63,0,1,1,1.62-1.63A1.62,1.62,0,0,1,380,71.12Z"/><path class="cls-18" d="M385,77.94a1.89,1.89,0,0,0-1.89-1.89H354.89A1.89,1.89,0,0,0,353,77.94v6.21a1.9,1.9,0,0,0,1.89,1.9h28.22a1.9,1.9,0,0,0,1.89-1.9Zm-9.32,4h-1.62V80.31h1.62Zm4.33.81a1.62,1.62,0,1,1,1.62-1.62A1.61,1.61,0,0,1,380,82.74Z"/><path class="cls-18" d="M385,88.94a1.89,1.89,0,0,0-1.89-1.89H354.89A1.89,1.89,0,0,0,353,88.94v6.21a1.9,1.9,0,0,0,1.89,1.9h28.22a1.9,1.9,0,0,0,1.89-1.9Zm-9.32,4.62h-1.62V91.93h1.62Zm4.33.81a1.63,1.63,0,1,1,1.62-1.62A1.62,1.62,0,0,1,380,94.37Z"/><rect class="cls-15" x="342.57" y="52.33" width="57.59" height="57.59" rx="5.94"/></g><g id="Tab2"><rect class="cls-7" x="209.61" y="111.61" width="84.73" height="84.73" rx="8.74"/><rect class="cls-16" x="229.49" y="105.61" width="71" height="71" rx="7.33"/><rect class="cls-19" x="229.49" y="105.61" width="71" height="71" rx="7.33"/><path class="cls-18" d="M245.35,160.61h0a5.55,5.55,0,0,1,0-7.85l13-12.95a3.13,3.13,0,0,1,4.42,0l3.42,3.42a3.12,3.12,0,0,1,0,4.43l-12.95,13A5.55,5.55,0,0,1,245.35,160.61Z"/><polygon class="cls-18" points="269.21 139.29 266.66 136.75 281.29 122.12 284.48 121.48 283.84 124.66 269.21 139.29"/><path class="cls-18" d="M267.77,142.69l-4.5-4.51a1,1,0,0,1,0-1.46h0a1,1,0,0,1,1.46,0l4.5,4.51a1,1,0,0,1,0,1.46h0A1,1,0,0,1,267.77,142.69Z"/><path class="cls-18" d="M261.71,134.06l-6.17-6.19c1.15-3.09-1.18-6.89-3.71-7.89l-.05,4.76a2,2,0,0,1-2,2,2,2,0,0,1-2-2v-4.72a6.57,6.57,0,0,0-4.1,5.75,6.11,6.11,0,0,0,5.34,6,5.27,5.27,0,0,0,3-.42l6.22,6.24Z"/><path class="cls-18" d="M282.25,157.53v4.72a6.55,6.55,0,0,0,4.1-5.75,6.14,6.14,0,0,0-5.2-6.1,4.81,4.81,0,0,0-2.85.29l-6.46-6.48-3.54,3.53,6.42,6.44c-1.86,3.8,1,7,3.57,8v-4.7a2,2,0,0,1,2-2A2,2,0,0,1,282.25,157.53Z"/><rect class="cls-15" x="232.49" y="105.61" width="71" height="71" rx="7.33"/></g><g id="Tab1"><rect class="cls-16" x="269.41" y="7.18" width="85.58" height="85.58" rx="8.83" transform="translate(624.41 99.95) rotate(180)"/><rect class="cls-7" x="249.67" y="20.78" width="102.14" height="102.14" rx="10.54"/><rect class="cls-19" x="269.41" y="7.18" width="85.58" height="85.58" rx="8.83" transform="translate(624.41 99.95) rotate(180)"/><path class="cls-18" d="M312.18,23.45,286,33.74s3.31,36,26.21,42.75c22.91-6.75,26.22-42.75,26.22-42.75Zm-.66,34.86a1.86,1.86,0,0,1-1.45.74h0a1.8,1.8,0,0,1-1.45-.77l-9.19-12.66a1.81,1.81,0,0,1,2.93-2.13l7.76,10.68L322.8,37.43a1.8,1.8,0,0,1,2.53-.35,1.94,1.94,0,0,1,.35,2.64Z"/><rect class="cls-15" x="273.03" y="7.18" width="85.58" height="85.58" rx="8.83" transform="translate(631.64 99.95) rotate(180)"/></g><g id="Promt2"><rect class="cls-5" x="347.81" y="229.97" width="85.25" height="57.53"/><rect class="cls-8" x="347.81" y="229.97" width="85.25" height="57.53"/><rect class="cls-9" x="349.39" y="234.41" width="81.87" height="51.18"/><rect class="cls-2" x="353.14" y="242.34" width="67.31" height="1.5"/><rect class="cls-2" x="353.14" y="246.59" width="57.3" height="1.5"/><rect class="cls-2" x="353.14" y="250.84" width="67.31" height="1.5"/><rect class="cls-2" x="353.14" y="255.09" width="57.3" height="1.5"/><rect class="cls-2" x="353.14" y="259.34" width="7.27" height="1.5"/><rect class="cls-2" x="353.14" y="263.59" width="37.29" height="1.5"/><rect class="cls-2" x="353.14" y="267.84" width="57.3" height="1.5"/><rect class="cls-2" x="353.14" y="272.09" width="7.27" height="1.5"/><rect class="cls-2" x="353.14" y="276.34" width="7.27" height="1.5"/></g><g id="Promt1"><rect class="cls-5" x="101.98" y="110.28" width="85.25" height="57.53"/><rect class="cls-8" x="101.98" y="110.28" width="85.25" height="57.53"/><rect class="cls-9" x="103.57" y="114.72" width="81.87" height="51.18"/><rect class="cls-2" x="107.32" y="122.65" width="67.31" height="1.5"/><rect class="cls-2" x="107.32" y="126.9" width="57.3" height="1.5"/><rect class="cls-2" x="107.32" y="131.15" width="67.31" height="1.5"/><rect class="cls-2" x="107.32" y="135.4" width="57.3" height="1.5"/><rect class="cls-2" x="107.32" y="139.65" width="7.27" height="1.5"/><rect class="cls-2" x="107.32" y="143.9" width="37.29" height="1.5"/><rect class="cls-2" x="107.32" y="148.15" width="57.3" height="1.5"/><rect class="cls-2" x="107.32" y="152.4" width="7.27" height="1.5"/><rect class="cls-2" x="107.32" y="156.65" width="7.27" height="1.5"/></g></g></svg>