<svg xmlns="http://www.w3.org/2000/svg" viewBox="0 0 438.63 329.79"><defs><style>.cls-1{isolation:isolate;}.cls-2,.cls-3{fill:#ddecff;}.cls-10,.cls-20,.cls-3{mix-blend-mode:multiply;}.cls-4{fill:#60a8ff;}.cls-5{fill:#223a7a;}.cls-25,.cls-6{fill:#fff;}.cls-7{fill:#1c83ff;}.cls-8{fill:#ff9d8c;}.cls-9{fill:#8593b6;}.cls-11{fill:#8e9bbb;}.cls-12{fill:#dee1eb;}.cls-13{fill:#818fb3;}.cls-14{fill:#6baeff;}.cls-15{fill:#43588e;}.cls-16{fill:#f6f7fa;}.cls-17{fill:#d9dee8;}.cls-18{fill:#596b9b;}.cls-19{fill:#7a89af;}.cls-20{fill:#bdc4d7;}.cls-21{fill:#6f7fa9;}.cls-22{fill:#9ca6c3;}.cls-23{fill:#d2e6ff;}.cls-24{fill:#ff5f42;}.cls-25{font-size:12px;font-family:Quicksand-Bold, Quicksand Bold;font-weight:700;}.cls-26{fill:#67acff;}</style></defs><g class="cls-1"><g id="Layer_2" data-name="Layer 2"><g id="BACKGROUND"><path class="cls-2" d="M75.16,312.41s-54.62-38.9-70.34-105.1,8.28-146.49,53.79-187S186.06,7,222.47,41l36.42,33.93s34.76,19,80.27,17.38S425.23,152.68,436,201.51,421.1,314.89,421.1,314.89Z"/><path class="cls-3" d="M50.34,322.34s-38.07-20.69-48-68.69,33.1-91.86,37.24-115.86-5-53.8,33.1-77S178.61,45.93,204.27,40.13,259.72-5.38,311,3.72s101,36.41,103.44,96S397.92,161,417,193.24s26.48,54.62,17.38,87.72-28.14,42.21-28.14,42.21Z"/><path class="cls-3" d="M129.83,311.58c-2.37-2.48-37.1-72,1.57-135.72s135.78-56.28,174.46-31.45,57.62,57.1,61.57,91-22.11,86.9-22.11,86.9Z"/></g><g id="OBJECTS"><rect class="cls-4" x="352.54" y="162.27" width="54.62" height="32.28" rx="5"/><polygon class="cls-4" points="379.85 207.17 386.93 190.41 372.78 190.41 379.85 207.17"/><polygon class="cls-5" points="379.69 172.87 392.46 172.87 392.46 174.74 398.72 171.13 392.46 167.51 392.46 169.38 379.69 169.38 379.69 172.87"/><polygon class="cls-6" points="398.72 180.21 385.95 180.21 385.95 178.34 379.69 181.95 385.95 185.56 385.95 183.69 398.72 183.69 398.72 180.21"/><path class="cls-5" d="M371.85,183.5l-.61.22a19.35,19.35,0,0,1-2.88-4.52,16.1,16.1,0,0,1-1-5.24l.44-.18-2.7-6.47a5.33,5.33,0,0,0-1.31,1.49c-1.53,2.58-1.37,6.55.16,10.42s3.18,7.33,6.18,9.5a6,6,0,0,0,4.47,1.32Z"/><path class="cls-5" d="M373.78,182.74l-.84.3,2.77,6.62a5.44,5.44,0,0,0,.84-.36,1.61,1.61,0,0,0,.72-2l-1.44-3.64A1.61,1.61,0,0,0,373.78,182.74Z"/><path class="cls-5" d="M367.2,166.18a6.55,6.55,0,0,0-1.09.51l2.76,6.6.93-.39a1.62,1.62,0,0,0,.88-2.07l-1.45-3.72A1.61,1.61,0,0,0,367.2,166.18Z"/><path class="cls-7" d="M116.92,300.41V225.93s-.82-20.07,9.73-25.87,55-2.69,55-2.69v103Z"/><path class="cls-8" d="M195.58,127.65s-2.69,22.55-3.73,24.41l-1,1.87-5.17,3.51s9.93,14.07,22.14,16.35,11.17-5,11.17-5l-1.86-3.93,2.48-21.52S197.44,133.24,195.58,127.65Z"/><path class="cls-6" d="M179.23,159.31l8.07-3.52s5.17,8.48,17.17,13.45,12.21,2.07,12.83,0a7.93,7.93,0,0,0-.2-4.35l.88-7.24,4.8,1.6L239.44,294l-42.83,2.07Z"/><path class="cls-5" d="M218.75,157.79s2.9,6.69,5.59,22.41,5.17,42.21,5.79,60.42,1,59.79,1,59.79h54c.63,0,4.35-20.48,4.35-20.48s-23.59-20.21-24.83-23.52c-.83-2.21-.41-43.1-3.93-61.93s-8.07-22.62-17.59-27.31C233.33,162.32,218.75,157.79,218.75,157.79Z"/><path class="cls-9" d="M246.89,276.7a.5.5,0,0,1-.5-.5c0-1.48-.26-22.49-.52-42.82s-.52-41.35-.52-42.83a.5.5,0,0,1,.5-.5.5.5,0,0,1,.5.5c0,1.48.27,22.49.52,42.82s.52,41.35.52,42.83A.5.5,0,0,1,246.89,276.7Z"/><path class="cls-5" d="M139.3,271.65l-.41,28.76h62.9s2.68-24.42,1.65-26.69S139.3,271.65,139.3,271.65Z"/><g class="cls-10"><path class="cls-11" d="M209.3,151.44a32.84,32.84,0,0,0,8.8,4.73l1.48-12.8s-16.63-7.61-22.27-13.28C198.49,136.53,201.39,145.06,209.3,151.44Z"/></g><path class="cls-8" d="M239,85.65a44.86,44.86,0,0,1,5.17,16.55c.83,9.11,0,32.48-7.45,42.42s-23,7-30,1c-6.46-5.51-12.83-11.59-14.48-23.59s3.52-34.75,18.2-39.51S239,85.65,239,85.65Z"/><path class="cls-8" d="M257.69,287.4s-.73,0-1.84,0H255l-3.68-.1-.88,0c-1.3,0-2.41.13-3.45.07h0c-.22,0-.54,0-.8,0a1.94,1.94,0,0,1-.33,0,4.86,4.86,0,0,1-1.37-.54A93,93,0,0,0,223,283.94c-9.24,0-17.53.67-18.88-.46s-2.18-12.76,5.71-13.52l9.7,3.68S241.68,271,249.8,277,257.69,287.4,257.69,287.4Z"/><path class="cls-5" d="M247,287.3c-.22,0-.54,0-.8,0a9.39,9.39,0,0,0-.85-1.14c-2.5-2.55-8.54-4.2-10.73-4.73a.38.38,0,0,1-.28-.45.38.38,0,0,1,.46-.28c3.19.77,10,2.74,11.88,6C246.7,286.79,246.86,287.1,247,287.3Z"/><path class="cls-5" d="M251.32,287.26c-.29,0-.59,0-.88,0-2.73-5-7.19-6.41-12.71-8.18l-.33-.11a.39.39,0,0,1-.24-.48.39.39,0,0,1,.48-.24l.32.11C243.79,280.21,248.49,281.71,251.32,287.26Z"/><path class="cls-5" d="M255.85,287.37H255a21.76,21.76,0,0,0-14.38-10.66.38.38,0,0,1-.31-.44.38.38,0,0,1,.44-.3C248.21,277.36,254.24,283.46,255.85,287.37Z"/><path class="cls-5" d="M197.23,111.82a19.31,19.31,0,0,0,7.76-8.27A23.58,23.58,0,0,0,207.79,92s5.79-.93,14.48,1.66,19,6.1,27.72,1.13,8.69-12.93,4.45-16.24c-4.75-3.71-14.17-1.45-14.17-1.45s3.62-3.51,1.65-5.58-9.1.62-9.1.62-8.69-6.93-25.14-6.11-24.31,12.32-25.24,25.14,3.72,25.66,3.72,25.66Z"/><g class="cls-10"><path class="cls-11" d="M230.6,114.93c-.93,2.3-.91,5-1.14,7.41-.18,1.89-.53,4.11,1.21,5.39.83.61,4.75,2.26,2.73,3.6a5.3,5.3,0,0,1-2.93.33l-1.82-.1c-.65-.05-1.28-.25-1.93-.25a.38.38,0,0,0-.19.7,8.21,8.21,0,0,0,3.79.9,5.74,5.74,0,0,0,3.14-.55,2.26,2.26,0,0,0,1.44-1.61,2.59,2.59,0,0,0-1.24-2.22c-.78-.58-1.74-.85-2.53-1.41-1.1-.79-1-2.11-.93-3.33.19-2.94.86-5.83,1.12-8.76.05-.45-.57-.45-.72-.1Z"/></g><path class="cls-5" d="M239.06,121.81c-.31,1.75-1.58,3-2.83,2.76s-2-1.82-1.72-3.56,1.58-3,2.83-2.76S239.37,120.07,239.06,121.81Z"/><path class="cls-5" d="M223.23,120.43c-.28,1.88-1.61,3.24-3,3s-2.23-1.89-2-3.77,1.61-3.24,3-3S223.51,118.55,223.23,120.43Z"/><path class="cls-5" d="M235.38,114.62a28.2,28.2,0,0,0,2.91.07c.24,0,.47,0,.7.07s-.31-.05-.08,0l.15,0,.37.08c.21.05.41.13.61.17a2,2,0,0,0,.59.08l.32,0-.2,0a1.5,1.5,0,0,0,.4,0,1.08,1.08,0,0,0,.74-1.3,1.32,1.32,0,0,0-.21-.43l-.13-.16.12.14-.13-.17a.52.52,0,0,0-.22-.22c-.08-.06-.15-.13-.23-.18a2.93,2.93,0,0,0-.9-.36,7.12,7.12,0,0,0-1.78-.23,12.92,12.92,0,0,0-1.76.14,3.38,3.38,0,0,0-1.51.56,1,1,0,0,0-.46,1,.94.94,0,0,0,.7.81Z"/><path class="cls-5" d="M224.34,111.85l-.4-.2c-.12-.06-.44-.23-.2-.09l-.27-.15a6,6,0,0,0-1.25-.44,8.32,8.32,0,0,0-2.9-.2,6.75,6.75,0,0,0-2.87.9,1.54,1.54,0,0,0-.36.25l-.21.27.06-.09a1,1,0,0,0-.44.85.82.82,0,0,0,.45.74,1.24,1.24,0,0,0,1,0h-.52a1.86,1.86,0,0,0,.78,0s.28-.07.1,0,.28,0,.33,0,.37,0,0,0l.18,0,.47,0c.69-.05,1.37-.08,2-.11s1.28,0,1.92,0c.27,0,.54,0,.81,0s.09,0,0,0l.18,0,.33.11a.94.94,0,0,0,1.13-.56,1,1,0,0,0-.39-1.2Z"/><path class="cls-5" d="M229.25,140.62a9.36,9.36,0,0,1,4.68-4.21c-1.74-.18-9.92-.94-12,.24-2.31,1.31.43,6.58,5.21,6.85a6.32,6.32,0,0,0,1.4-.08A6.89,6.89,0,0,1,229.25,140.62Z"/><path class="cls-12" d="M191.44,129.51s.83,3.21,5.59,6.93a55,55,0,0,0,11.65,6.45l.55-2.41s-7.13-3.11-10.44-6.52-3.73-5.28-3.73-5.28Z"/><path class="cls-5" d="M210.06,138.69a6,6,0,0,1,6.24,4.81c.26,2-1.58,4.16-5.88,2.23C205.07,143.33,206.23,138.87,210.06,138.69Z"/><path class="cls-12" d="M194.44,105.82s1.65-11.89,9.62-20c15.21-15.42,28.14-14.49,28.14-14.49s-.1-2.17-5-3.82c-4.56-1.56-6.62-.73-6.62-.73s-12.51,1-23.07,12.73-11.69,26.58-11.69,26.58Z"/><path class="cls-6" d="M193.3,104.37c-10-1.68-15.51,6.11-15.93,14s5.3,13.84,12.93,13.24C207.47,130.24,205.51,106.44,193.3,104.37Z"/><path class="cls-13" d="M188.34,123.94a6.78,6.78,0,0,1-6.12-3.65,7.57,7.57,0,0,1,.29-7.82.38.38,0,1,1,.62.43,6.79,6.79,0,0,0-.25,7,6,6,0,0,0,5.65,3.26,6.54,6.54,0,0,0,5.43-2.93,8.27,8.27,0,0,0,.83-7.35,5.6,5.6,0,0,0-5.59-3.67.38.38,0,0,1-.42-.32.37.37,0,0,1,.33-.42,6.26,6.26,0,0,1,6.38,4.14,9.08,9.08,0,0,1-.9,8,7.31,7.31,0,0,1-6,3.27Z"/><path class="cls-5" d="M181.1,156.41s-30.21,7.45-40.76,19.45S124.82,247,124.61,258s7.45,15.52,12,18.63,24.62,8.69,40.76,9.51,31.45,0,31.45,0a21.57,21.57,0,0,1,2.43-8.69c2.3-4.79,5.22-5.79,5.22-5.79l-13.86-5s-2.42-43.49-6.2-64.55C192.06,177.93,181.1,156.41,181.1,156.41Z"/><path class="cls-9" d="M231.16,259.74a.53.53,0,0,1-.2-.05.5.5,0,0,1-.25-.66c2.83-6.38,5.76-18.92,7.41-27.71l.14-.71c.5-2.59,1.12-5.81-.12-8-.63-1.13-2.06-3.59-3.44-6s-2.77-4.77-3.15-5.47c-.73-1.35,1.57-4.95,4.89-9.9.9-1.34,1.67-2.5,2.12-3.28,1.19-2,.4-3.92-.51-6.09l-.31-.75c-.83-2-1.77-4.07-2.68-6L234,182.69l-1.47-3.26a189.92,189.92,0,0,0-9.81-19.77.48.48,0,0,1,.17-.68.51.51,0,0,1,.69.17A193,193,0,0,1,233.4,179l1.46,3.26,1.11,2.41c.91,2,1.86,4,2.69,6.07l.31.74c.93,2.21,1.89,4.5.46,7-.47.81-1.25,2-2.16,3.33-1.73,2.58-5.34,8-4.84,8.88.37.68,1.71,3,3.14,5.43s2.81,4.84,3.44,6c1.42,2.54.76,6,.23,8.71l-.14.7c-.6,3.2-3.78,19.6-7.48,27.94A.49.49,0,0,1,231.16,259.74Z"/><path class="cls-9" d="M201.68,261.49a.46.46,0,0,1-.35-.14c-2.35-2.37-13.69-22-14.54-25.7-.46-2,.7-7.14,1.82-12.1.87-3.84,1.77-7.81,1.52-8.89-.39-1.61-3.28-4-6.09-6.26-3.39-2.77-6.89-5.63-7.57-8.21-.77-2.93-.11-21.27.33-33.4.16-4.36.28-7.81.28-9a.5.5,0,0,1,.5-.5h0a.51.51,0,0,1,.5.5c0,1.25-.13,4.7-.28,9.08-.41,11.34-1.09,30.32-.36,33.11.6,2.26,4.12,5.14,7.23,7.68s6,4.87,6.43,6.81c.31,1.3-.53,5-1.51,9.34-1.05,4.62-2.23,9.86-1.82,11.66.83,3.62,12,22.89,14.27,25.21a.5.5,0,0,1,0,.71A.46.46,0,0,1,201.68,261.49Z"/><path class="cls-9" d="M161,252.91H161a.5.5,0,0,1-.43-.56c.37-2.6,6.11-54.4,6.37-58.37a.5.5,0,1,1,1,.07c-.26,4-6,55.83-6.38,58.44A.5.5,0,0,1,161,252.91Z"/><path class="cls-9" d="M202.2,267a.43.43,0,0,1-.19,0c-1.27-.51-6.89-2.41-14-4.81-14.36-4.84-34-11.47-37.77-13.42A.49.49,0,0,1,150,248a.5.5,0,0,1,.68-.21c3.67,1.9,24.1,8.79,37.62,13.35,7.13,2.41,12.76,4.31,14.06,4.83a.5.5,0,0,1,.27.65A.49.49,0,0,1,202.2,267Z"/><path class="cls-9" d="M195.29,287.6c-12.63,0-37.13-2.28-55.74-8.86a.5.5,0,0,1,.33-.94c23.51,8.32,56.4,9.74,62.52,8.36a.5.5,0,1,1,.22,1A39.86,39.86,0,0,1,195.29,287.6Z"/><path class="cls-14" d="M50.66,163.39c3.92,3.45,8.89,5.66,12.33,9.65,1.36,1.57,2.58,3.24,3.83,4.88.92,1.2,3.36,3.19,3.76,4.7.17.66.14-.24,0-.9l0-.09c-.34-3-.59-6.11-.7-9.17s.09-6.14-.1-9.19c-.27-4.31-1.62-8.48-5.14-11.18-1.72-1.32-3.93-2.12-5.52-3.59s-.9-3,0-4.53a15.76,15.76,0,0,0,2.15-4.54A8.1,8.1,0,0,0,59.88,134c-2.05-3.44-6.6-7.27-10.9-6.76-3.59.43-4,4.57-3.94,7.46s.32,5.6.35,8.4-.46,5.71-.5,8.58C44.82,156.51,47.07,160.23,50.66,163.39Z"/><path class="cls-14" d="M87.11,208.17A45.87,45.87,0,0,1,91,200.76c2.11-3.25,4.45-6.42,5.87-10.06s1.24-7.69,1.38-11.6c.11-2.88,1-5.75.73-8.63-.11-1.38-.9-3.62-2.69-3.39-1.4.18-2.22,1.9-2.76,3a53.25,53.25,0,0,0-2.27,6c-.27.79-.53,1.6-.87,2.36-.2.44-.84,1.52-1.43,1.37-1-.25-.1-4.4.05-5.13.76-3.7,1.91-7.13,2.07-10.93.23-5.5-.2-12.06-5.59-15.07-1.41-.79-3.19-1.26-4.53-.08s-1.69,3.17-1.89,4.83c-.6,5.09.6,9.9,2.23,14.69,1.34,3.95,3,8,3.06,12.26.12,4.06-2,7.67-3,11.51a36.36,36.36,0,0,0-1.27,11.36c0,2.48.08,4.94.26,7.42.17,2.27.37,4.55.65,6.82,0,.46.11.94.17,1.41-.88-2.1-1.18-4.52-1.91-6.63-1.29-3.77-2.78-7.45-4-11.23a91.47,91.47,0,0,0-3.33-9.28c-1.27-2.82-2.79-5.8-5.15-7.87a7.5,7.5,0,0,0-5.06-2,13.85,13.85,0,0,0-3.48.74,3.9,3.9,0,0,1-3.74-.66c-3.87-3-5-8.29-7.9-12.05-2.13-2.8-7.19-7.58-10.91-4.52-2,1.62-2.51,4.75-2.41,7.15a17.4,17.4,0,0,0,3,8.29c1.67,2.68,3.83,5.08,5.36,7.84a8.29,8.29,0,0,1,.9,5,12,12,0,0,0,.31,5.07c1.77,5,7.29,4.31,11.59,4.44a32.16,32.16,0,0,1,9.09,1.5,10.11,10.11,0,0,1,6.63,6.53c.85,2.36,1.31,5,2.92,7a7.51,7.51,0,0,0,2.85,2.13c1.68.74,6.79,1.06,6.83.59a23.41,23.41,0,0,1,1.33-4.69C85,213.57,86,210.85,87.11,208.17Z"/><path class="cls-14" d="M110.84,207.22c-.44-2.86-.36-6-1.71-8.65a.4.4,0,0,0-.53-.14c-1,.54-1,2.11-1.09,3.08-.14,1.59,0,3.19-.23,4.78a36.59,36.59,0,0,1-2,8.32,8.94,8.94,0,0,1-6.22,5.6,15.79,15.79,0,0,0-5.45,2.4A11.39,11.39,0,0,0,90.42,227c-2,4.5-3,9.54-3.9,14.35-.63,3.25-1.14,6.5-1.93,9.71a94.2,94.2,0,0,0-2.08,9.68c-.08.16-.16.33-.23.49-.2.49.56.76.83.35,3.1-4.78,6.89-9.07,12-11.71,2.33-1.19,5.43-1.43,7.38-3.3,1.48-1.43,1.68-3.6,1.46-5.53-.29-2.54-1.51-4.63-2.78-6.8-.69-1.19-1.52-2.46-1.24-3.91a5.05,5.05,0,0,1,2.53-3.06c2.14-1.33,4.66-1.93,6.41-3.86a10.46,10.46,0,0,0,2.72-6.4A44.32,44.32,0,0,0,110.84,207.22Z"/><path class="cls-14" d="M68.48,223.74a41.25,41.25,0,0,0-9.78-9.05c-2-1.32-6.67-3.93-7.62,0-.55,2.28,1.68,4.52,3.15,6,2.21,2.15,4.76,4,6.62,6.48-2.3.74-4.71.88-6.72,2.47-2.37,1.89-3.44,5.54-1.08,7.85a14.67,14.67,0,0,0,4.09,2.51c1.86.9,3.75,1.72,5.65,2.51,4.11,1.72,8.27,3.46,11.77,6.27s6.93,7.7,7.21,12.38c0,.44-.14,0,.13-.17.14.13.63-.1.63-.36a49.29,49.29,0,0,0-4.15-19.89A83.1,83.1,0,0,0,68.48,223.74Z"/><path class="cls-15" d="M59,159.18c1.52,3.14,3.1,6.21,4.78,9.27a75.42,75.42,0,0,1,4.44,9c1.49,3.87,3,7.68,4.62,11.52a112.27,112.27,0,0,1,4.27,12.2A145.46,145.46,0,0,1,82,226a101.64,101.64,0,0,1,.5,12.82c-.09,3.35-.47,6.66-.78,10a58.78,58.78,0,0,0-.28,10.44c.25,2.91.71,6.36,3,8.43a.52.52,0,0,0,.81-.63c-2.68-5.49-2.53-11.47-2-17.43.28-3.29.67-6.56.78-9.86a98,98,0,0,0-.42-12.59A147.69,147.69,0,0,0,79,202.85a110,110,0,0,0-4-12c-1.56-3.95-3.36-7.78-4.87-11.74-2.73-7.17-6.89-13.53-10.58-20.2-.19-.35-.69,0-.53.3Z"/><path class="cls-15" d="M82.07,217.79c.43-5.22.89-10.25,2.65-15.23.82-2.32,1.82-4.58,2.61-6.91.65-1.92,1.63-4.57,1.13-6.61a.23.23,0,0,0-.45,0c-.34,1.17-.3,2.45-.54,3.65a35.11,35.11,0,0,1-.92,3.45c-.77,2.41-1.78,4.72-2.65,7.09a35.1,35.1,0,0,0-2.19,14.56.18.18,0,0,0,.36,0Z"/><path class="cls-15" d="M51.82,187.79c2.08,5,8.3,5.3,12.84,6.42A12,12,0,0,1,72,200a44,44,0,0,1,4.19,10.1s.07,0,.06,0c-1.27-6-3.08-13.23-9.27-16-4.95-2.23-11.48-1.11-14.65-6.46-.16-.27-.64-.09-.52.21Z"/><path class="cls-15" d="M78.79,217c.25.33.48.68.73,1a2.92,2.92,0,0,0,.41.45,1,1,0,0,0,.58.29.13.13,0,0,0,.11-.19,2.27,2.27,0,0,0-.43-.39l-.45-.4c-.29-.27-.55-.57-.84-.85-.05,0-.16,0-.11.09Z"/><path class="cls-15" d="M65.84,232.87a50.79,50.79,0,0,1,9.49,10.21,60.93,60.93,0,0,1,3.45,5.68,63.53,63.53,0,0,1,2.8,6.59c.07.17.37.18.35,0-.5-4.71-3.48-8.75-5.86-12.66a30.13,30.13,0,0,0-4.44-5.37,39.74,39.74,0,0,0-5.47-4.82c-.24-.18-.55.22-.32.41Z"/><path class="cls-15" d="M94.29,227.33c-1.72,1-1.77,3.7-1.81,5.43-.06,3.34.76,6.47-.7,9.65-1.32,2.87-3.43,5.26-5.09,7.93-1.56,2.5-3.09,5.69-3.06,8.69,0,.17.27.27.35.09a35.57,35.57,0,0,0,1.3-4.34,18.21,18.21,0,0,1,2.12-4.48c1.6-2.47,3.56-4.73,4.86-7.39,1.36-2.81,1.16-5.59,1.07-8.63,0-1.94-.25-5.05,1.31-6.49a.29.29,0,0,0-.35-.46Z"/><path class="cls-6" d="M82.79,259.34c-6.94-.1-20.14-.17-20.14-.17l3.27,24.26A11,11,0,0,0,76.82,293H88.75a11,11,0,0,0,10.91-9.53l3.26-24.26S89.72,259.24,82.79,259.34Z"/><polygon class="cls-16" points="417.89 214.75 378.34 293.1 263.03 293.93 298.61 213.65 417.89 214.75"/><path class="cls-17" d="M186.5,293.44l0-6.27h74.64l34.35-75.31H414.89l3,2.89H301.27l-35.69,78.62S186.5,293.23,186.5,293.44Z"/><path class="cls-17" d="M358,258c-1.3,3.9-8.37,6.92-15.79,6.74s-12.38-3.51-11.08-7.42,8.38-6.92,15.8-6.74S359.31,254.08,358,258Z"/><path class="cls-6" d="M265.58,293.87a.52.52,0,0,1-.21,0,.5.5,0,0,1-.25-.66L301,214.25H417.89a.5.5,0,0,1,.5.5.5.5,0,0,1-.5.5H301.59L266,293.58A.48.48,0,0,1,265.58,293.87Z"/><rect class="cls-18" x="44.13" y="299.37" width="137.17" height="30.41"/><rect class="cls-19" x="180.52" y="299.37" width="246.8" height="30.41"/><polygon class="cls-20" points="181.3 299.37 180.52 299.37 44.13 299.37 44.13 304.96 180.52 304.96 181.3 304.96 427.32 304.96 427.32 299.37 181.3 299.37"/><rect class="cls-21" x="37.51" y="293.37" width="149.79" height="7.45"/><rect class="cls-22" x="186.52" y="293.37" width="246.8" height="7.45"/><rect class="cls-6" x="92.82" y="98.78" width="59.28" height="35.03" rx="5.43"/><polygon class="cls-6" points="165.9 116.29 147.71 108.62 147.71 123.96 165.9 116.29"/><circle class="cls-5" cx="110.97" cy="116.29" r="3.35"/><circle class="cls-5" cx="122.46" cy="116.29" r="3.35"/><circle class="cls-5" cx="133.95" cy="116.29" r="3.35"/><path class="cls-4" d="M393.2,24.41H281.41a13,13,0,0,0-13,13v53a13,13,0,0,0,13,13h10c.28,4.81-.41,12-4.42,21.11a56.16,56.16,0,0,0,24.23-21.11h82a13,13,0,0,0,13-13v-53A13,13,0,0,0,393.2,24.41Z"/><path class="cls-6" d="M345.51,49.68H290.06a2.76,2.76,0,0,1-2.76-2.75h0a2.76,2.76,0,0,1,2.76-2.76h55.45a2.76,2.76,0,0,1,2.76,2.76h0A2.76,2.76,0,0,1,345.51,49.68Z"/><path class="cls-23" d="M385.27,65.75H289a1.69,1.69,0,0,1-1.69-1.69h0A1.69,1.69,0,0,1,289,62.37h96.28A1.69,1.69,0,0,1,387,64.06h0A1.69,1.69,0,0,1,385.27,65.75Z"/><path class="cls-23" d="M385.27,75.13H289a1.69,1.69,0,0,1-1.69-1.69h0A1.69,1.69,0,0,1,289,71.75h96.28A1.69,1.69,0,0,1,387,73.44h0A1.69,1.69,0,0,1,385.27,75.13Z"/><path class="cls-23" d="M364.27,85.13H289a1.69,1.69,0,0,1-1.69-1.69h0A1.69,1.69,0,0,1,289,81.75h75.28A1.69,1.69,0,0,1,366,83.44h0A1.69,1.69,0,0,1,364.27,85.13Z"/><path class="cls-6" d="M384.51,49.68H358.06a2.76,2.76,0,0,1-2.76-2.75h0a2.76,2.76,0,0,1,2.76-2.76h26.45a2.75,2.75,0,0,1,2.76,2.76h0A2.75,2.75,0,0,1,384.51,49.68Z"/><rect class="cls-6" x="285.81" y="147.13" width="34.03" height="24.52" rx="2"/><path class="cls-21" d="M303,163.06a.74.74,0,0,1-.48-.18l-16.35-13.5a.75.75,0,1,1,1-1.15L303,161.32l15.45-13.44a.75.75,0,1,1,1,1.13l-15.93,13.86A.77.77,0,0,1,303,163.06Z"/><path class="cls-21" d="M286.69,171.09a.75.75,0,0,1-.54-1.27l11.43-12a.74.74,0,0,1,1.06,0,.75.75,0,0,1,0,1.06l-11.43,12A.74.74,0,0,1,286.69,171.09Z"/><path class="cls-21" d="M319,170.65a.71.71,0,0,1-.53-.22L307.05,159a.75.75,0,0,1,1.06-1.06l11.39,11.42a.75.75,0,0,1,0,1.06A.74.74,0,0,1,319,170.65Z"/><circle class="cls-24" cx="321.41" cy="146.37" r="10.03"/><text class="cls-25" transform="translate(314.35 150.61)">85</text><rect class="cls-5" x="359.57" y="125.51" width="66.62" height="17.17" rx="4"/><path class="cls-6" d="M367.8,138.6a.81.81,0,0,1-.63-.28,1,1,0,0,1-.21-.71l.25-2.22c0-.06,0-.09,0-.11s-.08,0-.14,0l-1.83,1.32a.84.84,0,0,1-.7.18.86.86,0,0,1-.59-.44.81.81,0,0,1-.1-.78.85.85,0,0,1,.52-.48l2.05-.93q.09,0,.09-.09s0-.06-.09-.08l-2.05-.93a.86.86,0,0,1-.51-.53.94.94,0,0,1,.09-.73.86.86,0,0,1,.59-.44.89.89,0,0,1,.7.15l1.83,1.35c.06,0,.1.05.14,0s.05,0,0-.11l-.25-2.22a.92.92,0,0,1,.22-.71.89.89,0,0,1,.68-.28.84.84,0,0,1,.84,1l-.25,2.22c0,.06,0,.09,0,.11s.08,0,.14,0l1.83-1.32a.85.85,0,0,1,.71-.18.79.79,0,0,1,.58.44.84.84,0,0,1,.1.78.88.88,0,0,1-.52.48l-2.06.93c-.05,0-.08.05-.08.08s0,.07.08.09l2.06.93a.9.9,0,0,1,.52.53.83.83,0,0,1-.1.73.79.79,0,0,1-.58.44.91.91,0,0,1-.71-.15l-1.83-1.35c-.06,0-.11-.05-.14,0s-.05.05,0,.11l.25,2.22a.82.82,0,0,1-.21.71A.94.94,0,0,1,367.8,138.6Z"/><path class="cls-6" d="M379.92,138.6a.81.81,0,0,1-.63-.28,1,1,0,0,1-.21-.71l.25-2.22c0-.06,0-.09,0-.11a.15.15,0,0,0-.15,0l-1.82,1.32a.86.86,0,0,1-.71.18.88.88,0,0,1-.59-.44.84.84,0,0,1-.1-.78.88.88,0,0,1,.52-.48l2.06-.93c.05,0,.08-.05.08-.09s0-.06-.08-.08l-2.06-.93a.82.82,0,0,1-.5-.53.9.9,0,0,1,.08-.73.88.88,0,0,1,.59-.44.92.92,0,0,1,.71.15l1.82,1.35a.15.15,0,0,0,.15,0s0,0,0-.11l-.25-2.22a.93.93,0,0,1,.23-.71.92.92,0,0,1,1.32,0,.84.84,0,0,1,.19.71l-.25,2.22c0,.06,0,.09,0,.11s.08,0,.14,0l1.83-1.32a.86.86,0,0,1,.72-.18.82.82,0,0,1,.58.44.83.83,0,0,1,.09.78.85.85,0,0,1-.52.48l-2.05.93c-.06,0-.09.05-.09.08s0,.07.09.09l2.05.93a.85.85,0,0,1,.52.53.8.8,0,0,1-.09.73.82.82,0,0,1-.58.44.92.92,0,0,1-.72-.15l-1.83-1.35c-.06,0-.1-.05-.14,0s-.05.05,0,.11l.25,2.22a.82.82,0,0,1-.21.71A.91.91,0,0,1,379.92,138.6Z"/><path class="cls-6" d="M392.05,138.6a.81.81,0,0,1-.63-.28,1,1,0,0,1-.22-.71l.26-2.22c0-.06,0-.09,0-.11s-.08,0-.14,0l-1.83,1.32a.85.85,0,0,1-.7.18.86.86,0,0,1-.59-.44.81.81,0,0,1-.1-.78.85.85,0,0,1,.52-.48l2.05-.93q.09,0,.09-.09s0-.06-.09-.08l-2.05-.93a.84.84,0,0,1-.51-.53.9.9,0,0,1,.09-.73.86.86,0,0,1,.59-.44.9.9,0,0,1,.7.15l1.83,1.35c.06,0,.1.05.14,0s.05,0,0-.11l-.26-2.22a1,1,0,0,1,.23-.71.89.89,0,0,1,.68-.28.84.84,0,0,1,.84,1l-.25,2.22c0,.06,0,.09,0,.11a.15.15,0,0,0,.15,0l1.83-1.32a.85.85,0,0,1,.71-.18.79.79,0,0,1,.58.44.84.84,0,0,1,.1.78.91.91,0,0,1-.52.48l-2.06.93c-.05,0-.08.05-.08.08s0,.07.08.09l2.06.93a.9.9,0,0,1,.52.53.83.83,0,0,1-.1.73.79.79,0,0,1-.58.44.91.91,0,0,1-.71-.15l-1.83-1.35a.15.15,0,0,0-.15,0s0,.05,0,.11l.25,2.22a.82.82,0,0,1-.21.71A.94.94,0,0,1,392.05,138.6Z"/><path class="cls-6" d="M404.17,138.6a.81.81,0,0,1-.63-.28,1,1,0,0,1-.21-.71l.25-2.22c0-.06,0-.09,0-.11s-.08,0-.14,0l-1.83,1.32a.84.84,0,0,1-.7.18.88.88,0,0,1-.59-.44.84.84,0,0,1-.1-.78.88.88,0,0,1,.52-.48l2.06-.93c.05,0,.08-.05.08-.09s0-.06-.08-.08l-2.06-.93a.82.82,0,0,1-.5-.53.9.9,0,0,1,.08-.73.88.88,0,0,1,.59-.44.89.89,0,0,1,.7.15l1.83,1.35c.06,0,.11.05.14,0s.05,0,0-.11l-.25-2.22a1,1,0,0,1,.22-.71.9.9,0,0,1,.68-.28.87.87,0,0,1,.65.28.84.84,0,0,1,.19.71l-.25,2.22c0,.06,0,.09,0,.11s.08,0,.14,0l1.83-1.32a.86.86,0,0,1,.72-.18.79.79,0,0,1,.57.44.81.81,0,0,1,.1.78.85.85,0,0,1-.52.48l-2.05.93c-.06,0-.09.05-.09.08s0,.07.09.09l2.05.93a.88.88,0,0,1,.52.53.8.8,0,0,1-.1.73.79.79,0,0,1-.57.44.92.92,0,0,1-.72-.15L405,135.31c-.06,0-.1-.05-.14,0s-.05.05,0,.11l.25,2.22a.82.82,0,0,1-.21.71A.94.94,0,0,1,404.17,138.6Z"/><path class="cls-26" d="M416.3,138.6a.8.8,0,0,1-.63-.28,1,1,0,0,1-.22-.71l.26-2.22c0-.06,0-.09,0-.11a.13.13,0,0,0-.14,0l-1.83,1.32a.85.85,0,0,1-.7.18.88.88,0,0,1-.6-.44.83.83,0,0,1-.09-.78.85.85,0,0,1,.52-.48l2.05-.93q.09,0,.09-.09s0-.06-.09-.08l-2.05-.93a.81.81,0,0,1-.51-.53.94.94,0,0,1,.08-.73.88.88,0,0,1,.6-.44.9.9,0,0,1,.7.15l1.83,1.35a.13.13,0,0,0,.14,0s.05,0,0-.11l-.26-2.22a.93.93,0,0,1,.23-.71.89.89,0,0,1,.68-.28.84.84,0,0,1,.84,1L417,132.8c0,.06,0,.09,0,.11a.15.15,0,0,0,.15,0l1.82-1.32a.88.88,0,0,1,.72-.18.8.8,0,0,1,.58.44.84.84,0,0,1,.1.78.91.91,0,0,1-.52.48l-2.06.93c-.05,0-.08.05-.08.08s0,.07.08.09l2.06.93a.9.9,0,0,1,.52.53.83.83,0,0,1-.1.73.8.8,0,0,1-.58.44.94.94,0,0,1-.72-.15l-1.82-1.35a.15.15,0,0,0-.15,0s0,.05,0,.11l.25,2.22a.82.82,0,0,1-.21.71A.94.94,0,0,1,416.3,138.6Z"/></g></g></g></svg>